<?xml version="1.0" encoding="utf-8"?><!-- Uploaded to: SVG Repo, www.svgrepo.com, Generator: SVG Repo Mixer Tools -->
<svg fill="#000000" width="800px" height="800px" viewBox="0 0 24 24" id="bathroom-2" data-name="Flat Color" xmlns="http://www.w3.org/2000/svg" class="icon flat-color"><path id="secondary" d="M6,21V5A3,3,0,0,1,9,2h5a3,3,0,0,1,3,3V6a1,1,0,0,1-2,0V5a1,1,0,0,0-1-1H9A1,1,0,0,0,8,5V21a1,1,0,0,1-2,0Zm8-4a1,1,0,0,0,1-1V14a1,1,0,0,0-2,0v2A1,1,0,0,0,14,17Zm4,0a1,1,0,0,0,1-1V14a1,1,0,0,0-2,0v2A1,1,0,0,0,18,17Z" style="fill: rgb(44, 169, 188);"></path><path id="primary" d="M16,5a4,4,0,0,1,4,4v1a1,1,0,0,1-1,1H13a1,1,0,0,1-1-1V9A4,4,0,0,1,16,5ZM5,22H9a1,1,0,0,0,0-2H5a1,1,0,0,0,0,2Z" style="fill: rgb(0, 0, 0);"></path></svg>