<?xml version="1.0" encoding="utf-8"?><!-- Uploaded to: SVG Repo, www.svgrepo.com, Generator: SVG Repo Mixer Tools -->
<svg fill="#000000" width="800px" height="800px" viewBox="0 0 24 24" id="bedroom-8" data-name="Flat Color" xmlns="http://www.w3.org/2000/svg" class="icon flat-color"><path id="secondary" d="M6,17v2a1,1,0,0,1-2,0V17a1,1,0,0,1,2,0ZM5,4A3,3,0,0,0,2,7v4a1,1,0,0,0,1,1H7a1,1,0,0,0,1-1V7A3,3,0,0,0,5,4ZM19,16a1,1,0,0,0-1,1v2a1,1,0,0,0,2,0V17A1,1,0,0,0,19,16Z" style="fill: rgb(44, 169, 188);"></path><path id="primary" d="M20,10H2v6a2,2,0,0,0,2,2H20a2,2,0,0,0,2-2V12A2,2,0,0,0,20,10Z" style="fill: rgb(0, 0, 0);"></path></svg>