<?xml version="1.0" encoding="utf-8"?><!-- Uploaded to: SVG Repo, www.svgrepo.com, Generator: SVG Repo Mixer Tools -->
<svg fill="#000000" width="800px" height="800px" viewBox="0 0 24 24" id="toilet" data-name="Flat Line" xmlns="http://www.w3.org/2000/svg" class="icon flat-line"><path id="secondary" d="M17,21H7l1-6h8ZM10,4A1,1,0,0,0,9,3H7A1,1,0,0,0,6,4v7h4Z" style="fill: rgb(44, 169, 188); stroke-width: 2;"></path><path id="primary" d="M10,11l6-5m0,9H8L7,21H17ZM10,4A1,1,0,0,0,9,3H7A1,1,0,0,0,6,4v7h4Zm8,9V11H6v2a2,2,0,0,0,2,2h8A2,2,0,0,0,18,13Z" style="fill: none; stroke: rgb(0, 0, 0); stroke-linecap: round; stroke-linejoin: round; stroke-width: 2;"></path></svg>